# xmcd
# 
# Track frame offsets:
#     150
#     19179
#     35295
#     53233
#     89300
#     102169
#     123318
#     134899
#     147105
#     176193
#     197620
#     220069
#     240290
# 
# Disc length: 3485
# 
# Revision: 1
# Processed by: cddbd v1.5.2PL0 Copyright (c) Steve Scherf et al.
# Submitted via: BonkEnc v1.0.6
# 
DISCID=b40d9b0d
DTITLE=The Pretty Things - Balboa Island
DYEAR=2007
DGENRE=Blues
TTITLE0=The Beat goes on
TTITLE1=Buried Alive
TTITLE2=Livin' in my skin
TTITLE3=(Blues for) Robert Johnson
TTITLE4=Pretty Beat
TTITLE5=In the Beginning
TTITLE6=Mimi
TTITLE7=Feel like goin' home
TTITLE8=The Ballad of Hollis Brown
TTITLE9=Freedom Song
TTITLE10=Dearly Beloved
TTITLE11=All light up
TTITLE12=Balboa Island
EXTD=
EXTT0=
EXTT1=
EXTT2=
EXTT3=
EXTT4=
EXTT5=
EXTT6=
EXTT7=
EXTT8=
EXTT9=
EXTT10=
EXTT11=
EXTT12=
PLAYORDER=
